<svg width="54" height="54" viewBox="0 0 54 54" fill="none" xmlns="http://www.w3.org/2000/svg">
<path d="M43.9607 27L48.4877 31.527C50.7364 33.7761 51.9996 36.8263 51.9996 40.0067C51.9996 43.1871 50.7364 46.2372 48.4877 48.4863C47.374 49.6002 46.0518 50.4837 44.5966 51.0865C43.1414 51.6893 41.5818 51.9996 40.0067 51.9996C38.4316 51.9996 36.8719 51.6893 35.4167 51.0865C33.9615 50.4837 32.6393 49.6002 31.5256 48.4863L5.51367 22.473C3.26499 20.2239 2.00173 17.1737 2.00173 13.9933C2.00173 10.8129 3.26499 7.76276 5.51367 5.51367C6.62736 4.39983 7.94955 3.51627 9.40473 2.91346C10.8599 2.31065 12.4196 2.00038 13.9947 2.00038C15.5698 2.00038 17.1295 2.31065 18.5846 2.91346C20.0398 3.51627 21.362 4.39983 22.4757 5.51367L27 10.038M5.51271 31.5264L31.5264 5.51271C36.21 0.829096 43.8037 0.829095 48.4873 5.51271C53.1709 10.1963 53.1709 17.79 48.4873 22.4736L22.4736 48.4873C17.79 53.1709 10.1963 53.1709 5.51271 48.4873C0.829096 43.8037 0.829095 36.21 5.51271 31.5264Z" stroke="#2173A3" stroke-width="3" stroke-linecap="round" stroke-linejoin="round"/>
</svg>
